<?xml version="1.0" encoding="UTF-8" standalone="no"?>
<!-- Created with Inkscape (http://www.inkscape.org/) -->

<svg
   xmlns:dc="http://purl.org/dc/elements/1.1/"
   xmlns:cc="http://creativecommons.org/ns#"
   xmlns:rdf="http://www.w3.org/1999/02/22-rdf-syntax-ns#"
   xmlns:svg="http://www.w3.org/2000/svg"
   xmlns="http://www.w3.org/2000/svg"
   xmlns:xlink="http://www.w3.org/1999/xlink"
   version="1.1"
   width="40"
   height="530"
   id="svg7733">
  <defs
     id="defs7735">
    <linearGradient
       id="linearGradient3243-6-1-0-1-8-5-4">
      <stop
         id="stop3245-5-5-13-3-95-4-7"
         style="stop-color:#0000ff;stop-opacity:1"
         offset="0" />
      <stop
         id="stop3247-6-9-7-2-54-74-13"
         style="stop-color:#e2e9ee;stop-opacity:1"
         offset="1" />
    </linearGradient>
    <linearGradient
       id="linearGradient5228-3-7-2-9-3-3-9">
      <stop
         id="stop5230-7-6-6-9-4-0-6"
         style="stop-color:#6a6aff;stop-opacity:1"
         offset="0" />
      <stop
         id="stop5232-4-7-4-6-1-7-0"
         style="stop-color:#d5e0e7;stop-opacity:1"
         offset="1" />
    </linearGradient>
    <linearGradient
       id="linearGradient7637">
      <stop
         id="stop7639"
         style="stop-color:#6a6aff;stop-opacity:1"
         offset="0" />
      <stop
         id="stop7641"
         style="stop-color:#d5e0e7;stop-opacity:1"
         offset="1" />
    </linearGradient>
    <linearGradient
       id="linearGradient7644">
      <stop
         id="stop7646"
         style="stop-color:#0000ff;stop-opacity:1"
         offset="0" />
      <stop
         id="stop7648"
         style="stop-color:#e2e9ee;stop-opacity:1"
         offset="1" />
    </linearGradient>
    <linearGradient
       id="linearGradient7651">
      <stop
         id="stop7653"
         style="stop-color:#0000ff;stop-opacity:1"
         offset="0" />
      <stop
         id="stop7655"
         style="stop-color:#e2e9ee;stop-opacity:1"
         offset="1" />
    </linearGradient>
    <linearGradient
       id="linearGradient7658">
      <stop
         id="stop7660"
         style="stop-color:#0000ff;stop-opacity:1"
         offset="0" />
      <stop
         id="stop7662"
         style="stop-color:#e2e9ee;stop-opacity:1"
         offset="1" />
    </linearGradient>
    <linearGradient
       id="linearGradient7665">
      <stop
         id="stop7667"
         style="stop-color:#6a6aff;stop-opacity:1"
         offset="0" />
      <stop
         id="stop7669"
         style="stop-color:#d5e0e7;stop-opacity:1"
         offset="1" />
    </linearGradient>
    <linearGradient
       id="linearGradient7672">
      <stop
         id="stop7674"
         style="stop-color:#6a6aff;stop-opacity:1"
         offset="0" />
      <stop
         id="stop7676"
         style="stop-color:#d5e0e7;stop-opacity:1"
         offset="1" />
    </linearGradient>
    <linearGradient
       x1="-1340"
       y1="-3644.1377"
       x2="-1340"
       y2="-3107.3174"
       id="linearGradient7920"
       xlink:href="#linearGradient3243-6-1-0-1-8-5-4-8"
       gradientUnits="userSpaceOnUse"
       gradientTransform="matrix(0.4115578,0,0,0.380101,751.87018,2597.8804)" />
    <linearGradient
       id="linearGradient3243-6-1-0-1-8-5-4-8">
      <stop
         id="stop3245-5-5-13-3-95-4-7-3"
         style="stop-color:#0000ff;stop-opacity:1"
         offset="0" />
      <stop
         id="stop3247-6-9-7-2-54-74-13-1"
         style="stop-color:#e2e9ee;stop-opacity:1"
         offset="1" />
    </linearGradient>
    <linearGradient
       x1="-1705"
       y1="-2927.6377"
       x2="-1335"
       y2="-2927.6377"
       id="linearGradient7922"
       xlink:href="#linearGradient5228-3-7-2-9-3-3-9-4"
       gradientUnits="userSpaceOnUse"
       gradientTransform="matrix(0.4115578,0,0,0.380101,751.87018,2476.2481)" />
    <linearGradient
       id="linearGradient5228-3-7-2-9-3-3-9-4">
      <stop
         id="stop5230-7-6-6-9-4-0-6-2"
         style="stop-color:#6a6aff;stop-opacity:1"
         offset="0" />
      <stop
         id="stop5232-4-7-4-6-1-7-0-0"
         style="stop-color:#d5e0e7;stop-opacity:1"
         offset="1" />
    </linearGradient>
    <linearGradient
       x1="-975"
       y1="-2927.6377"
       x2="-1345"
       y2="-2927.6377"
       id="linearGradient7924"
       xlink:href="#linearGradient5228-3-7-2-9-3-3-9-4"
       gradientUnits="userSpaceOnUse"
       gradientTransform="matrix(0.4115578,0,0,0.380101,751.87018,2476.2481)" />
    <linearGradient
       id="linearGradient8009">
      <stop
         id="stop8011"
         style="stop-color:#6a6aff;stop-opacity:1"
         offset="0" />
      <stop
         id="stop8013"
         style="stop-color:#d5e0e7;stop-opacity:1"
         offset="1" />
    </linearGradient>
    <linearGradient
       x1="610.63763"
       y1="1359.1296"
       x2="462.47693"
       y2="1373.837"
       id="linearGradient7926"
       xlink:href="#linearGradient3243-6-1-0-1-8-5-4-8"
       gradientUnits="userSpaceOnUse"
       gradientTransform="matrix(1.0005174,0,0,1.0017007,-14.555863,8.7773918)" />
    <linearGradient
       id="linearGradient8016">
      <stop
         id="stop8018"
         style="stop-color:#0000ff;stop-opacity:1"
         offset="0" />
      <stop
         id="stop8020"
         style="stop-color:#e2e9ee;stop-opacity:1"
         offset="1" />
    </linearGradient>
    <linearGradient
       x1="541.57196"
       y1="1282.4214"
       x2="689.73273"
       y2="1297.1287"
       id="linearGradient7928"
       xlink:href="#linearGradient3243-6-1-0-1-8-5-4-8"
       gradientUnits="userSpaceOnUse"
       gradientTransform="matrix(1.0005174,0,0,1.0017007,-241.92923,85.616159)" />
    <linearGradient
       id="linearGradient8023">
      <stop
         id="stop8025"
         style="stop-color:#0000ff;stop-opacity:1"
         offset="0" />
      <stop
         id="stop8027"
         style="stop-color:#e2e9ee;stop-opacity:1"
         offset="1" />
    </linearGradient>
    <linearGradient
       x1="-1340"
       y1="-3644.1377"
       x2="-1340"
       y2="-3107.3174"
       id="linearGradient7930"
       xlink:href="#linearGradient3243-6-1-0-1-8-5-4-8"
       gradientUnits="userSpaceOnUse"
       gradientTransform="matrix(0.4115578,0,0,0.380101,751.87018,2597.8804)" />
    <linearGradient
       id="linearGradient8030">
      <stop
         id="stop8032"
         style="stop-color:#0000ff;stop-opacity:1"
         offset="0" />
      <stop
         id="stop8034"
         style="stop-color:#e2e9ee;stop-opacity:1"
         offset="1" />
    </linearGradient>
    <linearGradient
       x1="-1705"
       y1="-2927.6377"
       x2="-1335"
       y2="-2927.6377"
       id="linearGradient7932"
       xlink:href="#linearGradient5228-3-7-2-9-3-3-9-4"
       gradientUnits="userSpaceOnUse"
       gradientTransform="matrix(0.4115578,0,0,0.380101,751.87018,2476.2481)" />
    <linearGradient
       id="linearGradient8037">
      <stop
         id="stop8039"
         style="stop-color:#6a6aff;stop-opacity:1"
         offset="0" />
      <stop
         id="stop8041"
         style="stop-color:#d5e0e7;stop-opacity:1"
         offset="1" />
    </linearGradient>
    <linearGradient
       x1="-975"
       y1="-2927.6377"
       x2="-1345"
       y2="-2927.6377"
       id="linearGradient7934"
       xlink:href="#linearGradient5228-3-7-2-9-3-3-9-4"
       gradientUnits="userSpaceOnUse"
       gradientTransform="matrix(0.4115578,0,0,0.380101,751.87018,2476.2481)" />
    <linearGradient
       id="linearGradient8044">
      <stop
         id="stop8046"
         style="stop-color:#6a6aff;stop-opacity:1"
         offset="0" />
      <stop
         id="stop8048"
         style="stop-color:#d5e0e7;stop-opacity:1"
         offset="1" />
    </linearGradient>
    <linearGradient
       x1="-1340"
       y1="-3644.1377"
       x2="-1340"
       y2="-3107.3174"
       id="linearGradient4915-0"
       xlink:href="#linearGradient3243-6-1-0-1-8-5-7-6"
       gradientUnits="userSpaceOnUse"
       gradientTransform="matrix(0.4115578,0,0,0.380101,751.87018,2597.8804)" />
    <linearGradient
       id="linearGradient3243-6-1-0-1-8-5-7-6">
      <stop
         id="stop3245-5-5-13-3-95-4-4-1"
         style="stop-color:#0000ff;stop-opacity:1"
         offset="0" />
      <stop
         id="stop3247-6-9-7-2-54-74-1-6"
         style="stop-color:#e2e9ee;stop-opacity:1"
         offset="1" />
    </linearGradient>
    <linearGradient
       x1="-1705"
       y1="-2927.6377"
       x2="-1335"
       y2="-2927.6377"
       id="linearGradient4917-9"
       xlink:href="#linearGradient5228-3-7-2-9-3-3-2-7"
       gradientUnits="userSpaceOnUse"
       gradientTransform="matrix(0.4115578,0,0,0.380101,751.87018,2476.2481)" />
    <linearGradient
       id="linearGradient5228-3-7-2-9-3-3-2-7">
      <stop
         id="stop5230-7-6-6-9-4-0-0-4"
         style="stop-color:#6a6aff;stop-opacity:1"
         offset="0" />
      <stop
         id="stop5232-4-7-4-6-1-7-3-7"
         style="stop-color:#d5e0e7;stop-opacity:1"
         offset="1" />
    </linearGradient>
    <linearGradient
       x1="-975"
       y1="-2927.6377"
       x2="-1345"
       y2="-2927.6377"
       id="linearGradient4919-2"
       xlink:href="#linearGradient5228-3-7-2-9-3-3-2-7"
       gradientUnits="userSpaceOnUse"
       gradientTransform="matrix(0.4115578,0,0,0.380101,751.87018,2476.2481)" />
    <linearGradient
       id="linearGradient8378">
      <stop
         id="stop8380"
         style="stop-color:#6a6aff;stop-opacity:1"
         offset="0" />
      <stop
         id="stop8382"
         style="stop-color:#d5e0e7;stop-opacity:1"
         offset="1" />
    </linearGradient>
    <linearGradient
       x1="610.63763"
       y1="1359.1296"
       x2="462.47693"
       y2="1373.837"
       id="linearGradient4921-6"
       xlink:href="#linearGradient3243-6-1-0-1-8-5-7-6"
       gradientUnits="userSpaceOnUse"
       gradientTransform="matrix(1.0005174,0,0,1.0017007,-14.555863,8.7773918)" />
    <linearGradient
       id="linearGradient8385">
      <stop
         id="stop8387"
         style="stop-color:#0000ff;stop-opacity:1"
         offset="0" />
      <stop
         id="stop8389"
         style="stop-color:#e2e9ee;stop-opacity:1"
         offset="1" />
    </linearGradient>
    <linearGradient
       x1="541.57196"
       y1="1282.4214"
       x2="689.73273"
       y2="1297.1287"
       id="linearGradient4923-4"
       xlink:href="#linearGradient3243-6-1-0-1-8-5-7-6"
       gradientUnits="userSpaceOnUse"
       gradientTransform="matrix(1.0005174,0,0,1.0017007,-241.92923,85.616159)" />
    <linearGradient
       id="linearGradient8392">
      <stop
         id="stop8394"
         style="stop-color:#0000ff;stop-opacity:1"
         offset="0" />
      <stop
         id="stop8396"
         style="stop-color:#e2e9ee;stop-opacity:1"
         offset="1" />
    </linearGradient>
    <linearGradient
       x1="-1340"
       y1="-3644.1377"
       x2="-1340"
       y2="-3107.3174"
       id="linearGradient4925-2"
       xlink:href="#linearGradient3243-6-1-0-1-8-5-7-6"
       gradientUnits="userSpaceOnUse"
       gradientTransform="matrix(0.4115578,0,0,0.380101,751.87018,2597.8804)" />
    <linearGradient
       id="linearGradient8399">
      <stop
         id="stop8401"
         style="stop-color:#0000ff;stop-opacity:1"
         offset="0" />
      <stop
         id="stop8403"
         style="stop-color:#e2e9ee;stop-opacity:1"
         offset="1" />
    </linearGradient>
    <linearGradient
       x1="-1705"
       y1="-2927.6377"
       x2="-1335"
       y2="-2927.6377"
       id="linearGradient4927-2"
       xlink:href="#linearGradient5228-3-7-2-9-3-3-2-7"
       gradientUnits="userSpaceOnUse"
       gradientTransform="matrix(0.4115578,0,0,0.380101,751.87018,2476.2481)" />
    <linearGradient
       id="linearGradient8406">
      <stop
         id="stop8408"
         style="stop-color:#6a6aff;stop-opacity:1"
         offset="0" />
      <stop
         id="stop8410"
         style="stop-color:#d5e0e7;stop-opacity:1"
         offset="1" />
    </linearGradient>
    <linearGradient
       x1="-975"
       y1="-2927.6377"
       x2="-1345"
       y2="-2927.6377"
       id="linearGradient4929-1"
       xlink:href="#linearGradient5228-3-7-2-9-3-3-2-7"
       gradientUnits="userSpaceOnUse"
       gradientTransform="matrix(0.4115578,0,0,0.380101,751.87018,2476.2481)" />
    <linearGradient
       id="linearGradient8413">
      <stop
         id="stop8415"
         style="stop-color:#6a6aff;stop-opacity:1"
         offset="0" />
      <stop
         id="stop8417"
         style="stop-color:#d5e0e7;stop-opacity:1"
         offset="1" />
    </linearGradient>
  </defs>
  <metadata
     id="metadata7738">
    <rdf:RDF>
      <cc:Work
         rdf:about="">
        <dc:format>image/svg+xml</dc:format>
        <dc:type
           rdf:resource="http://purl.org/dc/dcmitype/StillImage" />
        <dc:title></dc:title>
      </cc:Work>
    </rdf:RDF>
  </metadata>
  <g
     transform="translate(-170.23203,54.45408)"
     id="layer1">
    <g
       transform="matrix(0.76576729,0,0,0.76576729,299.73648,262.10796)"
       id="g6716-5-6">
      <g
         transform="matrix(0,-1.0488088,0.95346263,0,0,0)"
         id="text2815-6-8-6-3-2-6-92-3-5"
         style="font-size:32.46660233px;font-style:normal;font-weight:normal;fill:#ff6600;fill-opacity:1;stroke:none;font-family:Swis721 Lt BT">
        <path
           d="m -205.99728,-152.14919 5.07211,0 c 2.34014,2e-5 4.02011,-0.3757 5.03991,-1.12713 1.01977,-0.76215 1.52967,-1.99126 1.52968,-3.68735 -1e-5,-1.61018 -0.45623,-2.79098 -1.36866,-3.54243 -0.91246,-0.76214 -2.3348,-1.14321 -4.26702,-1.14324 l -6.00602,0 0,9.50015 m -2.17377,12.26969 0,-23.71817 8.2764,0 c 2.58704,2e-5 4.53,0.55822 5.82891,1.6746 1.29887,1.11642 1.94832,2.78029 1.94834,4.9916 -2e-5,2.2865 -0.72998,3.98793 -2.18987,5.10432 -1.44919,1.10568 -3.66589,1.65851 -6.6501,1.6585 l -5.03991,0 0,10.28915 -2.17377,0"
           id="path5803"
           style="fill:#ff6600" />
        <path
           d="m -189.85802,-160.61881 0,-2.97886 1.96443,0 0,2.97886 -1.96443,0 m 0,20.73931 0,-17.11637 1.96443,0 0,17.11637 -1.96443,0"
           id="path5805"
           style="fill:#ff6600;font-family:Swis721 Lt BT" />
        <path
           d="m -186.3081,-139.8795 6.00603,-8.77556 -5.74839,-8.34081 2.4797,0 4.49244,6.82722 4.41193,-6.82722 2.39919,0 -5.60347,8.3086 6.23145,8.80777 -2.4958,0 -4.9111,-7.26198 -4.89499,7.26198 -2.36699,0"
           id="path5807"
           style="fill:#ff6600;font-family:Swis721 Lt BT" />
        <path
           d="m -170.21714,-139.8795 0,-23.71817 2.23817,0 0,23.71817 -2.23817,0"
           id="path5809"
           style="fill:#ff6600;font-family:Swis721 Lt BT" />
        <path
           d="m -165.06192,-139.8795 0,-17.11637 1.91613,0 0,2.73733 c 0.64407,-1.05198 1.43844,-1.84097 2.38309,-2.36699 0.94464,-0.53671 2.03957,-0.80508 3.2848,-0.8051 1.1808,2e-5 2.21669,0.20935 3.10767,0.62798 0.89096,0.41867 1.57261,1.01444 2.04495,1.78732 0.24688,0.39719 0.424,0.88025 0.53137,1.44917 0.10733,0.55822 0.161,1.48139 0.16102,2.76954 l 0,0.49916 0,10.41796 -2.04495,0 0,-10.61119 c -2e-5,-2.00736 -0.31132,-3.36529 -0.93392,-4.07379 -0.61188,-0.7192 -1.69608,-1.07881 -3.25259,-1.07883 -1.59947,2e-5 -2.86615,0.50991 -3.80006,1.52969 -0.92318,1.00906 -1.38477,2.38846 -1.38477,4.1382 l 0,10.09592 -2.01274,0"
           id="path5811"
           style="fill:#ff6600;font-family:Swis721 Lt BT" />
        <path
           d="m -149.37351,-145.20925 1.98054,0 c 0.0537,1.18082 0.49915,2.14157 1.33646,2.88225 0.84803,0.72996 1.93223,1.09494 3.25259,1.09494 1.4277,0 2.54947,-0.2791 3.36531,-0.83731 0.82655,-0.56893 1.23984,-1.33645 1.23985,-2.30257 -1e-5,-1.38477 -1.51896,-2.44213 -4.55685,-3.17209 -0.043,-0.0107 -0.0698,-0.0161 -0.0805,-0.0161 -2.4475,-0.5904 -4.0899,-1.23984 -4.9272,-1.94834 -0.82657,-0.70847 -1.23985,-1.69606 -1.23985,-2.96276 0,-1.47063 0.5421,-2.66217 1.6263,-3.57463 1.09493,-0.92316 2.51726,-1.38475 4.26701,-1.38477 1.92149,2e-5 3.45118,0.48308 4.58906,1.44918 1.13786,0.9554 1.76583,2.28649 1.88393,3.99328 l -2.01275,0 c -0.0859,-1.15932 -0.52064,-2.06103 -1.30425,-2.70512 -0.78364,-0.6548 -1.84637,-0.98221 -3.18819,-0.98222 -1.17008,1e-5 -2.10399,0.26838 -2.80174,0.80509 -0.69775,0.53675 -1.04663,1.24524 -1.04662,2.12546 -1e-5,1.52433 1.55651,2.65147 4.66956,3.38141 0.40791,0.0966 0.71384,0.1664 0.91781,0.20933 1.95369,0.48306 3.31162,1.0842 4.07379,1.80341 0.76215,0.71923 1.14323,1.72829 1.14324,3.02717 -1e-5,1.44918 -0.60115,2.62999 -1.80342,3.54243 -1.19155,0.91244 -2.76417,1.36866 -4.71787,1.36867 -1.98591,-1e-5 -3.58,-0.526 -4.78228,-1.578 -1.20228,-1.05199 -1.83025,-2.45822 -1.88392,-4.21871"
           id="path5813"
           style="fill:#ff6600;font-family:Swis721 Lt BT" />
        <path
           d="m -133.57239,-160.61881 0,-2.97886 1.96443,0 0,2.97886 -1.96443,0 m 0,20.73931 0,-17.11637 1.96443,0 0,17.11637 -1.96443,0"
           id="path5815"
           style="fill:#ff6600;font-family:Swis721 Lt BT" />
        <path
           d="m -127.02989,-148.41353 c -1e-5,2.26501 0.50989,4.04696 1.52968,5.34584 1.03052,1.28816 2.44212,1.93224 4.23481,1.93224 1.83561,0 3.26332,-0.63871 4.28312,-1.91614 1.01978,-1.27741 1.52967,-3.06473 1.52969,-5.36194 -2e-5,-2.30794 -0.50991,-4.09525 -1.52969,-5.36195 -1.00907,-1.26667 -2.43677,-1.90002 -4.28312,-1.90003 -1.84636,1e-5 -3.2687,0.62799 -4.26701,1.88392 -0.99833,1.25597 -1.49749,3.04865 -1.49748,5.37806 m 13.39682,-8.58234 0,16.23076 c -2e-5,2.60852 -0.68704,4.57832 -2.06105,5.90942 -1.36331,1.33108 -3.38142,1.99663 -6.05434,1.99664 -1.99664,-1e-5 -3.6122,-0.45086 -4.84668,-1.35257 -1.22375,-0.89097 -1.89467,-2.10935 -2.01275,-3.65514 l 2.02885,0 c 0.11808,1.04126 0.58503,1.84099 1.40087,2.39919 0.82656,0.5582 1.95906,0.8373 3.39751,0.8373 2.06104,0 3.60683,-0.5099 4.63736,-1.52968 1.04125,-1.01979 1.56188,-2.53338 1.56189,-4.54075 l 0,-2.10936 c -0.69776,1.13788 -1.5458,1.99128 -2.54411,2.56021 -0.98759,0.5582 -2.13083,0.8373 -3.42971,0.83731 -2.35089,-1e-5 -4.20262,-0.79973 -5.55517,-2.3992 -1.35257,-1.61019 -2.02885,-3.81078 -2.02885,-6.60179 0,-2.76953 0.68165,-4.96476 2.04495,-6.5857 1.37403,-1.62091 3.22038,-2.43138 5.53907,-2.4314 1.32035,2e-5 2.47432,0.28449 3.46192,0.85341 0.98757,0.56895 1.81414,1.41698 2.4797,2.54411 l 0,-2.96276 1.98054,0"
           id="path5817"
           style="fill:#ff6600;font-family:Swis721 Lt BT" />
        <path
           d="m -111.06775,-139.8795 0,-23.71817 2.01274,0 0,9.27472 c 0.63334,-1.01977 1.42233,-1.79267 2.36699,-2.31868 0.94464,-0.52598 2.0342,-0.78898 3.26869,-0.789 1.13786,2e-5 2.15765,0.21471 3.05937,0.64408 0.901699,0.4294 1.588714,1.01981 2.061053,1.77122 0.246881,0.40793 0.424002,0.90709 0.531364,1.49748 0.107331,0.59042 0.161004,1.66388 0.16102,3.22039 l 0,10.41796 -2.012744,0 0,-10.38576 c -1.4e-5,-2.13618 -0.30595,-3.56388 -0.917813,-4.28312 -0.61188,-0.72994 -1.70145,-1.09491 -3.26869,-1.09493 -1.59947,2e-5 -2.87689,0.51528 -3.83227,1.54579 -0.94465,1.0198 -1.41697,2.39383 -1.41697,4.1221 l 0,10.09592 -2.01274,0"
           id="path5819"
           style="fill:#ff6600;font-family:Swis721 Lt BT" />
        <path
           d="m -92.680848,-161.90697 0,4.9111 3.172084,0 0,1.61019 -3.172084,0 0,12.47901 c -5e-6,0.72996 0.09124,1.21302 0.273733,1.44918 0.182484,0.23616 0.509889,0.35424 0.982219,0.35424 0.203952,0 0.434746,-0.0161 0.692384,-0.0483 0.257624,-0.0429 0.660172,-0.12344 1.207646,-0.24152 l 0.0161,1.57799 c -0.483066,0.12881 -0.923186,0.22006 -1.32036,0.27373 -0.397188,0.0644 -0.772899,0.0966 -1.127136,0.0966 -0.987591,0 -1.685342,-0.2469 -2.093254,-0.74069 -0.407919,-0.50453 -0.611877,-1.4116 -0.611874,-2.72123 l 0,-12.47901 -2.334782,0 0,-1.61019 2.334782,0 0,-4.9111 1.98054,0"
           id="path5821"
           style="fill:#ff6600;font-family:Swis721 Lt BT" />
        <path
           d="m -81.785712,-147.17368 2.173763,0 0,1.52968 c -3e-6,1.51359 0.327403,2.64072 0.982219,3.38141 0.654808,0.72996 1.658495,1.09493 3.011064,1.09493 1.535044,0 2.629976,-0.38107 3.284798,-1.14324 0.665536,-0.76215 0.99831,-2.03957 0.998321,-3.83226 l 0,-17.45451 2.173763,0 0,17.95367 c -1.3e-5,2.07179 -0.558214,3.66051 -1.674603,4.76618 -1.116412,1.10566 -2.731973,1.6585 -4.846686,1.6585 -2.018116,0 -3.542432,-0.52063 -4.572954,-1.56189 -1.019791,-1.05199 -1.529686,-2.60851 -1.529685,-4.66957 l 0,-1.7229"
           id="path5823"
           style="font-style:normal;font-variant:normal;font-weight:normal;font-stretch:normal;fill:#0066ff;font-family:Swis721 Lt BT;-inkscape-font-specification:Swis721 Lt BT" />
        <path
           d="m -54.809841,-148.84829 c -0.52601,0.19324 -1.202291,0.34889 -2.028846,0.46696 -0.815842,0.11809 -2.1362,0.22544 -3.961079,0.32204 -1.266693,0.33278 -2.222074,0.8051 -2.866147,1.41697 -0.644082,0.61188 -0.96612,1.3472 -0.966117,2.20597 -3e-6,0.97685 0.343505,1.75511 1.030525,2.33478 0.697746,0.57967 1.642393,0.86951 2.833943,0.86951 1.814144,0 3.25795,-0.46696 4.331424,-1.40087 1.084185,-0.94465 1.626284,-2.22744 1.626297,-3.84837 l 0,-2.36699 m 0.128816,6.48909 c -0.901722,0.97685 -1.878573,1.70681 -2.930555,2.18986 -1.052003,0.48306 -2.184506,0.72459 -3.397511,0.72459 -1.728281,0 -3.10768,-0.45085 -4.138201,-1.35256 -1.019792,-0.90171 -1.529687,-2.10399 -1.529685,-3.60684 -2e-6,-0.97684 0.230793,-1.83025 0.692383,-2.56021 0.472322,-0.72995 1.15397,-1.30425 2.044948,-1.72291 1.019785,-0.46158 2.721223,-0.78362 5.104318,-0.96611 0.461579,-0.0322 0.810455,-0.059 1.046626,-0.0805 0.13954,-0.0322 0.327396,-0.0698 0.563569,-0.11272 1.631651,-0.33276 2.447483,-1.03588 2.447496,-2.10935 -1.3e-5,-1.33108 -0.332787,-2.2811 -0.998321,-2.85005 -0.654824,-0.57965 -1.739021,-0.86949 -3.252594,-0.8695 -1.53506,1e-5 -2.710501,0.32205 -3.526326,0.96611 -0.815837,0.63336 -1.255957,1.57801 -1.32036,2.83395 l -1.948336,-0.0161 c 0.04294,-1.70679 0.670912,-3.05398 1.883928,-4.04158 1.213008,-0.99831 2.850038,-1.49747 4.911094,-1.49749 2.050304,2e-5 3.606824,0.44014 4.669566,1.32036 1.062714,0.88026 1.594077,2.16841 1.594093,3.86447 l 0,9.33913 c -1.6e-5,0.70849 0.08586,1.14861 0.257631,1.32036 0.171738,0.17176 0.493777,0.25763 0.966117,0.25763 0.150268,0 0.279083,0 0.386446,0 0.10733,-0.0107 0.220043,-0.0215 0.338141,-0.0322 l 0,1.48138 c -0.246913,0.0537 -0.493809,0.0912 -0.740689,0.11271 -0.246913,0.0322 -0.47234,0.0483 -0.676282,0.0483 -0.815847,0 -1.427721,-0.19859 -1.835622,-0.59577 -0.40793,-0.39718 -0.611888,-0.98759 -0.611874,-1.77122 l 0,-0.27373"
           id="path5825"
           style="font-style:normal;font-variant:normal;font-weight:normal;font-stretch:normal;fill:#0066ff;font-family:Swis721 Lt BT;-inkscape-font-specification:Swis721 Lt BT" />
        <path
           d="m -45.143563,-139.8795 -6.440779,-17.11637 2.141559,0 5.474663,14.70108 5.37805,-14.70108 2.044948,0 -6.392474,17.11637 -2.205967,0"
           id="path5827"
           style="font-style:normal;font-variant:normal;font-weight:normal;font-stretch:normal;fill:#0066ff;font-family:Swis721 Lt BT;-inkscape-font-specification:Swis721 Lt BT" />
        <path
           d="m -24.560161,-148.84829 c -0.52601,0.19324 -1.202291,0.34889 -2.028846,0.46696 -0.815842,0.11809 -2.136201,0.22544 -3.961079,0.32204 -1.266693,0.33278 -2.222074,0.8051 -2.866147,1.41697 -0.644082,0.61188 -0.966121,1.3472 -0.966117,2.20597 -4e-6,0.97685 0.343504,1.75511 1.030525,2.33478 0.697745,0.57967 1.642392,0.86951 2.833943,0.86951 1.814143,0 3.25795,-0.46696 4.331424,-1.40087 1.084185,-0.94465 1.626283,-2.22744 1.626297,-3.84837 l 0,-2.36699 m 0.128815,6.48909 c -0.901721,0.97685 -1.878572,1.70681 -2.930555,2.18986 -1.052003,0.48306 -2.184505,0.72459 -3.397511,0.72459 -1.728281,0 -3.10768,-0.45085 -4.138201,-1.35256 -1.019792,-0.90171 -1.529686,-2.10399 -1.529685,-3.60684 -10e-7,-0.97684 0.230793,-1.83025 0.692384,-2.56021 0.472321,-0.72995 1.15397,-1.30425 2.044948,-1.72291 1.019785,-0.46158 2.721222,-0.78362 5.104317,-0.96611 0.46158,-0.0322 0.810455,-0.059 1.046627,-0.0805 0.13954,-0.0322 0.327396,-0.0698 0.563568,-0.11272 1.631652,-0.33276 2.447483,-1.03588 2.447497,-2.10935 -1.4e-5,-1.33108 -0.332787,-2.2811 -0.998321,-2.85005 -0.654825,-0.57965 -1.739021,-0.86949 -3.252594,-0.8695 -1.53506,1e-5 -2.710501,0.32205 -3.526327,0.96611 -0.815837,0.63336 -1.255956,1.57801 -1.32036,2.83395 l -1.948335,-0.0161 c 0.04294,-1.70679 0.670911,-3.05398 1.883928,-4.04158 1.213008,-0.99831 2.850038,-1.49747 4.911094,-1.49749 2.050304,2e-5 3.606824,0.44014 4.669565,1.32036 1.062714,0.88026 1.594078,2.16841 1.594093,3.86447 l 0,9.33913 c -1.5e-5,0.70849 0.08586,1.14861 0.257631,1.32036 0.171739,0.17176 0.493777,0.25763 0.966117,0.25763 0.150268,0 0.279084,0 0.386447,0 0.107329,-0.0107 0.220043,-0.0215 0.338141,-0.0322 l 0,1.48138 c -0.246914,0.0537 -0.49381,0.0912 -0.74069,0.11271 -0.246912,0.0322 -0.47234,0.0483 -0.676282,0.0483 -0.815847,0 -1.42772,-0.19859 -1.835622,-0.59577 -0.407929,-0.39718 -0.611887,-0.98759 -0.611874,-1.77122 l 0,-0.27373"
           id="path5829"
           style="font-style:normal;font-variant:normal;font-weight:normal;font-stretch:normal;fill:#0066ff;font-family:Swis721 Lt BT;-inkscape-font-specification:Swis721 Lt BT" />
        <path
           d="m -19.917706,-147.06097 2.173763,0 c 0.02147,1.86783 0.611869,3.317 1.771214,4.34753 1.159334,1.03052 2.790996,1.54578 4.894992,1.54578 1.8463451,0 3.295519,-0.41328 4.3475267,-1.23985 1.0627129,-0.8373 1.5940766,-1.9859 1.5940929,-3.44581 -1.63e-5,-1.35256 -0.3703607,-2.38308 -1.1110344,-3.09158 -0.7407041,-0.70847 -2.2167146,-1.34718 -4.4280362,-1.91613 l -2.254273,-0.56357 c -2.426033,-0.6226 -4.106001,-1.41159 -5.03991,-2.36699 -0.923181,-0.9661 -1.384769,-2.31866 -1.384767,-4.05769 -2e-6,-1.92148 0.703115,-3.46189 2.109355,-4.62126 1.406231,-1.15931 3.28479,-1.73898 5.635682,-1.73901 2.4904226,3e-5 4.4333892,0.63337 5.8289057,1.90003 1.4062198,1.26671 2.1254395,3.03792 2.1576611,5.31365 l -2.205967,0 c -0.032219,-1.68532 -0.5582159,-2.98421 -1.577991,-3.89667 -1.0198031,-0.92316 -2.4528751,-1.38475 -4.2992208,-1.38477 -1.739018,2e-5 -3.086213,0.39183 -4.041589,1.17544 -0.955387,0.78365 -1.433077,1.88931 -1.433073,3.317 -4e-6,1.08422 0.3113,1.94299 0.933913,2.57631 0.622603,0.62263 1.653126,1.11642 3.091574,1.48138 l 2.769535,0.69239 c 2.7373178,0.68703 4.6588151,1.55653 5.764498,2.60851 1.1056492,1.05201 1.6584823,2.50118 1.6585007,4.34753 -1.84e-5,2.12546 -0.7299727,3.80006 -2.189865,5.02381 -1.4491903,1.22374 -3.4350953,1.83562 -5.9577207,1.83562 -2.823216,0 -4.996977,-0.66018 -6.52129,-1.98054 -1.52432,-1.33109 -2.286478,-3.23112 -2.286476,-5.70009 l 0,-0.16102"
           id="path5831"
           style="font-style:normal;font-variant:normal;font-weight:normal;font-stretch:normal;fill:#0066ff;font-family:Swis721 Lt BT;-inkscape-font-specification:Swis721 Lt BT" />
        <path
           d="m 11.148061,-145.78892 1.98054,0 c -0.182504,1.96445 -0.907091,3.5156 -2.173763,4.65347 -1.2666991,1.12713 -2.9144635,1.6907 -4.9432982,1.6907 -2.3186872,0 -4.1489402,-0.79436 -5.4907646,-2.38309 -1.33109646,-1.58872 -1.996643,-3.75175 -1.9966417,-6.48908 -1.3e-6,-2.83393 0.67627986,-5.06137 2.0288456,-6.68231 1.3632936,-1.62091 3.2257505,-2.43138 5.5873763,-2.4314 1.9214883,2e-5 3.4994777,0.54212 4.7339726,1.6263 1.245203,1.07348 1.916117,2.49045 2.012744,4.25092 l -1.90003,0 c -0.161033,-1.24521 -0.68703,-2.24353 -1.577991,-2.99497 -0.8802512,-0.75141 -1.9698154,-1.12712 -3.2686956,-1.12713 -1.7068139,1e-5 -3.0647435,0.64409 -4.0737931,1.93223 -0.9983247,1.28817 -1.49748465,3.03791 -1.49748125,5.24924 -3.4e-6,2.26501 0.50452385,4.05769 1.51358315,5.37805 1.0197842,1.32036 2.3830812,1.98054 4.0898951,1.98054 1.3310841,0 2.4421174,-0.41328 3.3331034,-1.23985 0.8909613,-0.82657 1.4384273,-1.96444 1.6423983,-3.41362"
           id="path5833"
           style="font-style:normal;font-variant:normal;font-weight:normal;font-stretch:normal;fill:#0066ff;font-family:Swis721 Lt BT;-inkscape-font-specification:Swis721 Lt BT" />
        <path
           d="m 15.017643,-139.8795 0,-17.11637 1.916132,0 0,2.99496 c 0.493788,-1.14859 1.175437,-2.00736 2.044947,-2.57631 0.880233,-0.56892 1.959063,-0.85339 3.236492,-0.85341 l 0.225427,0 0,2.07716 -0.257631,0 c -1.706814,10e-6 -2.989601,0.50454 -3.848365,1.51358 -0.848041,1.00907 -1.272059,2.51728 -1.272054,4.52465 l 0,9.43574 -2.044948,0"
           id="path5835"
           style="font-style:normal;font-variant:normal;font-weight:normal;font-stretch:normal;fill:#0066ff;font-family:Swis721 Lt BT;-inkscape-font-specification:Swis721 Lt BT" />
        <path
           d="m 23.975442,-160.61881 0,-2.97886 1.964438,0 0,2.97886 -1.964438,0 m 0,20.73931 0,-17.11637 1.964438,0 0,17.11637 -1.964438,0"
           id="path5837"
           style="font-style:normal;font-variant:normal;font-weight:normal;font-stretch:normal;fill:#0066ff;font-family:Swis721 Lt BT;-inkscape-font-specification:Swis721 Lt BT" />
        <path
           d="m 31.21031,-148.41353 c -4e-6,2.26501 0.509891,4.04159 1.529686,5.32974 1.019783,1.27742 2.431386,1.91613 4.234812,1.91613 1.867814,0 3.300886,-0.62797 4.299221,-1.88393 1.00904,-1.25594 1.513567,-3.04326 1.513583,-5.36194 -1.6e-5,-2.31867 -0.504543,-4.10599 -1.513583,-5.36195 -1.009069,-1.26667 -2.442141,-1.90002 -4.299221,-1.90003 -1.846365,1e-5 -3.268702,0.62799 -4.267016,1.88392 -0.998326,1.25597 -1.497486,3.04865 -1.497482,5.37806 m -1.916131,15.42566 0,-24.008 2.012743,0 0,3.07547 c 0.644073,-1.19153 1.454537,-2.07177 2.431394,-2.64072 0.976844,-0.57965 2.157653,-0.86949 3.542429,-0.86951 2.350872,2e-5 4.202594,0.80512 5.555173,2.4153 1.352546,1.59947 2.028827,3.80007 2.028845,6.6018 -1.8e-5,2.80174 -0.687034,5.00234 -2.061049,6.60179 -1.363313,1.59947 -3.236505,2.39919 -5.619581,2.3992 -1.320368,-1e-5 -2.463605,-0.28447 -3.429715,-0.85341 -0.966122,-0.56893 -1.781954,-1.4277 -2.447496,-2.57631 l 0,9.85439 -2.012743,0"
           id="path5839"
           style="font-style:normal;font-variant:normal;font-weight:normal;font-stretch:normal;fill:#0066ff;font-family:Swis721 Lt BT;-inkscape-font-specification:Swis721 Lt BT" />
        <path
           d="m 49.60385,-161.90697 0,4.9111 3.172084,0 0,1.61019 -3.172084,0 0,12.47901 c -4e-6,0.72996 0.09124,1.21302 0.273734,1.44918 0.182483,0.23616 0.509889,0.35424 0.982218,0.35424 0.203952,0 0.434747,-0.0161 0.692384,-0.0483 0.257624,-0.0429 0.660173,-0.12344 1.207646,-0.24152 l 0.0161,1.57799 c -0.483066,0.12881 -0.923185,0.22006 -1.320359,0.27373 -0.397188,0.0644 -0.7729,0.0966 -1.127137,0.0966 -0.987591,0 -1.685341,-0.2469 -2.093253,-0.74069 -0.407919,-0.50453 -0.611877,-1.4116 -0.611874,-2.72123 l 0,-12.47901 -2.334783,0 0,-1.61019 2.334783,0 0,-4.9111 1.980539,0"
           id="path5841"
           style="font-style:normal;font-variant:normal;font-weight:normal;font-stretch:normal;fill:#0066ff;font-family:Swis721 Lt BT;-inkscape-font-specification:Swis721 Lt BT" />
        <path
           d="m 64.588866,-152.43902 6.295862,0 c 2.211321,1e-5 3.800045,-0.3757 4.766177,-1.12714 0.976835,-0.75141 1.46526,-1.96979 1.465278,-3.65514 -1.8e-5,-0.77288 -0.15567,-1.47063 -0.466957,-2.09325 -0.300586,-0.62259 -0.735338,-1.12175 -1.304258,-1.49748 -0.440135,-0.30055 -0.966131,-0.51525 -1.577991,-0.64408 -0.611887,-0.1288 -1.615574,-0.1932 -3.011064,-0.19323 l -0.917811,0 -5.249236,0 0,9.21032 m -2.173763,12.55952 0,-23.71817 7.906057,0 c 1.83561,2e-5 3.161336,0.0752 3.977181,0.22543 0.826552,0.1503 1.545771,0.3972 2.157662,0.74068 0.933895,0.52602 1.653115,1.25598 2.157661,2.18987 0.504508,0.9232 0.756772,1.97519 0.756791,3.15598 -1.9e-5,1.45993 -0.327425,2.68904 -0.982219,3.68735 -0.65483,0.99833 -1.604844,1.71218 -2.850044,2.14156 0.9661,0.32205 1.658483,0.81584 2.077151,1.48138 0.418632,0.66555 0.713834,2.00738 0.885607,4.02548 l 0.305937,3.55853 c 0.04292,0.55821 0.128797,1.0198 0.257631,1.38477 0.128797,0.36498 0.295183,0.63335 0.499161,0.8051 l 0,0.32204 -2.415293,0 c -0.128832,-0.2469 -0.236179,-0.56894 -0.322039,-0.96612 -0.08589,-0.39718 -0.150301,-0.8856 -0.193223,-1.46528 l -0.273733,-3.13988 c -0.161036,-2.16838 -0.547482,-3.54778 -1.15934,-4.1382 -0.611889,-0.60113 -1.841003,-0.90169 -3.687347,-0.90171 l -6.923838,0 0,10.61119 -2.173763,0"
           id="path5843"
           style="font-style:normal;font-variant:normal;font-weight:normal;font-stretch:normal;fill:#0066ff;font-family:Swis721 Lt BT;-inkscape-font-specification:Swis721 Lt BT" />
        <path
           d="m 95.332616,-156.99587 0,17.11637 -1.916132,0 0,-2.73733 c -0.654825,1.0842 -1.454554,1.88929 -2.39919,2.41529 -0.933923,0.526 -2.044957,0.78899 -3.333103,0.789 -1.93224,-1e-5 -3.386782,-0.50453 -4.363629,-1.51359 -0.966119,-1.01979 -1.449177,-2.53873 -1.449175,-4.55685 l 0,-11.51289 1.98054,0 0,11.04593 c -4e-6,1.70681 0.322034,2.91983 0.966117,3.63904 0.644072,0.71923 1.717534,1.07884 3.22039,1.07884 1.642388,0 2.93591,-0.49916 3.880569,-1.49749 0.955369,-1.00905 1.43306,-2.38845 1.433074,-4.1382 l 0,-10.12812 1.980539,0"
           id="path5845"
           style="font-style:normal;font-variant:normal;font-weight:normal;font-stretch:normal;fill:#0066ff;font-family:Swis721 Lt BT;-inkscape-font-specification:Swis721 Lt BT" />
        <path
           d="m 98.413181,-139.8795 0,-17.11637 1.916129,0 0,2.73733 c 0.64408,-1.05198 1.43844,-1.84097 2.38309,-2.36699 0.94464,-0.53671 2.03957,-0.80508 3.2848,-0.8051 1.1808,2e-5 2.21669,0.20935 3.10768,0.62798 0.89096,0.41867 1.5726,1.01444 2.04494,1.78732 0.24688,0.39719 0.42401,0.88025 0.53137,1.44917 0.10733,0.55822 0.161,1.48139 0.16102,2.76954 l 0,0.49916 0,10.41796 -2.04495,0 0,-10.61119 c -10e-6,-2.00736 -0.31132,-3.36529 -0.93391,-4.07379 -0.61189,-0.7192 -1.69609,-1.07881 -3.2526,-1.07883 -1.59947,2e-5 -2.86615,0.50991 -3.80006,1.52969 -0.92318,1.00906 -1.38477,2.38846 -1.38477,4.1382 l 0,10.09592 -2.012739,0"
           id="path5847"
           style="font-style:normal;font-variant:normal;font-weight:normal;font-stretch:normal;fill:#0066ff;font-family:Swis721 Lt BT;-inkscape-font-specification:Swis721 Lt BT" />
        <path
           d="m 117.43469,-161.90697 0,4.9111 3.17209,0 0,1.61019 -3.17209,0 0,12.47901 c 0,0.72996 0.0912,1.21302 0.27373,1.44918 0.18249,0.23616 0.50989,0.35424 0.98222,0.35424 0.20396,0 0.43475,-0.0161 0.69239,-0.0483 0.25762,-0.0429 0.66017,-0.12344 1.20764,-0.24152 l 0.0161,1.57799 c -0.48307,0.12881 -0.92319,0.22006 -1.32036,0.27373 -0.39719,0.0644 -0.7729,0.0966 -1.12714,0.0966 -0.98759,0 -1.68534,-0.2469 -2.09325,-0.74069 -0.40792,-0.50453 -0.61188,-1.4116 -0.61188,-2.72123 l 0,-12.47901 -2.33478,0 0,-1.61019 2.33478,0 0,-4.9111 1.98054,0"
           id="path5849"
           style="font-style:normal;font-variant:normal;font-weight:normal;font-stretch:normal;fill:#0066ff;font-family:Swis721 Lt BT;-inkscape-font-specification:Swis721 Lt BT" />
        <path
           d="m 122.62464,-160.61881 0,-2.97886 1.96444,0 0,2.97886 -1.96444,0 m 0,20.73931 0,-17.11637 1.96444,0 0,17.11637 -1.96444,0"
           id="path5851"
           style="font-style:normal;font-variant:normal;font-weight:normal;font-stretch:normal;fill:#0066ff;font-family:Swis721 Lt BT;-inkscape-font-specification:Swis721 Lt BT" />
        <path
           d="m 127.87897,-139.8795 0,-17.11637 1.85173,0 0,2.83394 c 0.57966,-1.05198 1.33108,-1.85708 2.25427,-2.41529 0.9339,-0.56892 1.99663,-0.85339 3.18818,-0.85341 1.27741,2e-5 2.34014,0.29522 3.18819,0.88561 0.84802,0.57969 1.41159,1.40625 1.6907,2.4797 0.56893,-1.09492 1.32035,-1.92685 2.25428,-2.4958 0.94463,-0.57965 2.02882,-0.86949 3.25259,-0.86951 1.85707,2e-5 3.24184,0.46698 4.1543,1.40087 0.92316,0.9232 1.38475,2.32943 1.38477,4.21871 l 0,11.93155 -2.01274,0 0,-11.77053 c -3e-5,-1.43842 -0.27913,-2.46895 -0.8373,-3.09157 -0.55823,-0.62259 -1.47604,-0.9339 -2.75344,-0.93391 -1.5136,1e-5 -2.72661,0.46697 -3.63904,1.40087 -0.91246,0.93392 -1.36868,2.15767 -1.36866,3.67124 l 0,10.7239 -1.98054,0 0,-11.5773 c -2e-5,-1.41696 -0.29522,-2.46895 -0.88561,-3.15598 -0.59042,-0.68701 -1.49749,-1.03051 -2.72123,-1.03053 -1.50286,2e-5 -2.72123,0.47771 -3.65514,1.43307 -0.92318,0.9554 -1.38477,2.20598 -1.38477,3.75176 l 0,10.57898 -1.98054,0"
           id="path5853"
           style="font-style:normal;font-variant:normal;font-weight:normal;font-stretch:normal;fill:#0066ff;font-family:Swis721 Lt BT;-inkscape-font-specification:Swis721 Lt BT" />
        <path
           d="m 155.17689,-148.05929 0,0.0966 c 0,2.09326 0.50453,3.76249 1.51358,5.00771 1.00905,1.23448 2.36162,1.85172 4.0577,1.85172 1.34181,0 2.46358,-0.35961 3.3653,-1.07883 0.9017,-0.72995 1.44917,-1.7229 1.6424,-2.97886 l 1.98054,0 c -0.21471,1.73901 -0.96613,3.13451 -2.25427,4.18651 -1.28817,1.04126 -2.9091,1.56188 -4.86279,1.56189 -2.32942,-1e-5 -4.15431,-0.789 -5.47466,-2.36699 -1.32036,-1.57799 -1.98054,-3.76785 -1.98054,-6.5696 0,-2.8554 0.66018,-5.08283 1.98054,-6.68231 1.33109,-1.59944 3.17744,-2.39917 5.53907,-2.39919 2.2972,2e-5 4.08451,0.76755 5.36195,2.30258 1.28814,1.52433 1.93222,3.66052 1.93223,6.40858 l 0,0.66018 -12.80105,0 m 0.0322,-1.59409 10.72389,0.0161 c -0.0859,-1.88929 -0.60115,-3.37066 -1.54578,-4.44414 -0.93393,-1.08418 -2.17914,-1.62628 -3.73566,-1.6263 -1.56726,2e-5 -2.84468,0.54748 -3.83226,1.6424 -0.97686,1.09495 -1.51359,2.56559 -1.61019,4.41194"
           id="path5855"
           style="font-style:normal;font-variant:normal;font-weight:normal;font-stretch:normal;fill:#0066ff;font-family:Swis721 Lt BT;-inkscape-font-specification:Swis721 Lt BT" />
        <path
           d="m 180.11291,-141.82784 4.58906,0 c 1.79267,0 3.1023,-0.0644 3.92888,-0.19322 0.82655,-0.13955 1.51356,-0.37034 2.06104,-0.69238 1.20227,-0.71922 2.09861,-1.81415 2.68903,-3.2848 0.59039,-1.48137 0.88559,-3.38677 0.88561,-5.71619 -2e-5,-2.22206 -0.28449,-4.06841 -0.85341,-5.53907 -0.56895,-1.48136 -1.41698,-2.5924 -2.5441,-3.33311 -0.57969,-0.38642 -1.29354,-0.66016 -2.14156,-0.8212 -0.83732,-0.16099 -2.25965,-0.2415 -4.26702,-0.24153 l -0.51526,0 -3.83227,0 0,19.8215 m 3.39752,-21.76983 1.61019,0 c 1.95369,2e-5 3.41897,0.102 4.39583,0.30594 0.97684,0.20398 1.81951,0.53138 2.52801,0.98221 1.45989,0.9232 2.57092,2.2865 3.3331,4.0899 0.77287,1.7927 1.15932,3.93962 1.15934,6.44078 -2e-5,2.6944 -0.41867,4.95941 -1.25595,6.79502 -0.83732,1.83563 -2.07717,3.19892 -3.71955,4.0899 -0.68703,0.36497 -1.5297,0.62797 -2.52801,0.78899 -0.99833,0.15029 -2.52265,0.22543 -4.57295,0.22543 l -6.52129,0 0,-23.71817 5.57128,0"
           id="path5857"
           style="font-style:normal;font-variant:normal;font-weight:normal;font-stretch:normal;fill:#0066ff;font-family:Swis721 Lt BT;-inkscape-font-specification:Swis721 Lt BT" />
        <path
           d="m 200.85033,-148.41353 c 0,2.29721 0.50452,4.07916 1.51358,5.34584 1.01979,1.26669 2.44749,1.90003 4.28312,1.90003 1.85708,0 3.29016,-0.62797 4.29922,-1.88393 1.00904,-1.25594 1.51357,-3.04326 1.51359,-5.36194 -2e-5,-2.31867 -0.50455,-4.10599 -1.51359,-5.36195 -1.00906,-1.26667 -2.44214,-1.90002 -4.29922,-1.90003 -1.83563,1e-5 -3.26333,0.63336 -4.28312,1.90003 -1.00906,1.2667 -1.51358,3.05401 -1.51358,5.36195 m -2.04495,0 c 0,-2.86614 0.68165,-5.08284 2.04495,-6.65011 1.37403,-1.57797 3.30626,-2.36697 5.7967,-2.36699 2.50116,2e-5 4.43876,0.78902 5.81281,2.36699 1.38475,1.56727 2.07713,3.78397 2.07715,6.65011 -2e-5,2.84468 -0.68704,5.05064 -2.06105,6.6179 -1.37405,1.56725 -3.31702,2.35088 -5.82891,2.35088 -2.49044,0 -4.42267,-0.77826 -5.7967,-2.33478 -1.3633,-1.56725 -2.04495,-3.77859 -2.04495,-6.634"
           id="path5859"
           style="font-style:normal;font-variant:normal;font-weight:normal;font-stretch:normal;fill:#0066ff;font-family:Swis721 Lt BT;-inkscape-font-specification:Swis721 Lt BT" />
        <path
           d="m 229.01073,-145.78892 1.98054,0 c -0.1825,1.96445 -0.90709,3.5156 -2.17376,4.65347 -1.2667,1.12713 -2.91446,1.6907 -4.9433,1.6907 -2.31869,0 -4.14894,-0.79436 -5.49076,-2.38309 -1.3311,-1.58872 -1.99665,-3.75175 -1.99665,-6.48908 0,-2.83393 0.67628,-5.06137 2.02885,-6.68231 1.36329,-1.62091 3.22575,-2.43138 5.58738,-2.4314 1.92148,2e-5 3.49947,0.54212 4.73397,1.6263 1.2452,1.07348 1.91612,2.49045 2.01274,4.25092 l -1.90003,0 c -0.16103,-1.24521 -0.68703,-2.24353 -1.57799,-2.99497 -0.88025,-0.75141 -1.96981,-1.12712 -3.26869,-1.12713 -1.70682,1e-5 -3.06475,0.64409 -4.0738,1.93223 -0.99832,1.28817 -1.49748,3.03791 -1.49748,5.24924 0,2.26501 0.50453,4.05769 1.51359,5.37805 1.01978,1.32036 2.38308,1.98054 4.08989,1.98054 1.33108,0 2.44212,-0.41328 3.3331,-1.23985 0.89096,-0.82657 1.43843,-1.96444 1.6424,-3.41362"
           id="path5861"
           style="font-style:normal;font-variant:normal;font-weight:normal;font-stretch:normal;fill:#0066ff;font-family:Swis721 Lt BT;-inkscape-font-specification:Swis721 Lt BT" />
        <path
           d="m 246.27714,-156.99587 0,17.11637 -1.91614,0 0,-2.73733 c -0.65482,1.0842 -1.45455,1.88929 -2.39919,2.41529 -0.93392,0.526 -2.04495,0.78899 -3.3331,0.789 -1.93224,-1e-5 -3.38678,-0.50453 -4.36363,-1.51359 -0.96612,-1.01979 -1.44918,-2.53873 -1.44917,-4.55685 l 0,-11.51289 1.98054,0 0,11.04593 c -1e-5,1.70681 0.32203,2.91983 0.96611,3.63904 0.64408,0.71923 1.71754,1.07884 3.22039,1.07884 1.64239,0 2.93591,-0.49916 3.88057,-1.49749 0.95537,-1.00905 1.43306,-2.38845 1.43308,-4.1382 l 0,-10.12812 1.98054,0"
           id="path5863"
           style="font-style:normal;font-variant:normal;font-weight:normal;font-stretch:normal;fill:#0066ff;font-family:Swis721 Lt BT;-inkscape-font-specification:Swis721 Lt BT" />
        <path
           d="m 249.35773,-139.8795 0,-17.11637 1.85173,0 0,2.83394 c 0.57966,-1.05198 1.33108,-1.85708 2.25427,-2.41529 0.9339,-0.56892 1.99663,-0.85339 3.18818,-0.85341 1.27741,2e-5 2.34014,0.29522 3.18819,0.88561 0.84802,0.57969 1.41159,1.40625 1.6907,2.4797 0.56892,-1.09492 1.32035,-1.92685 2.25428,-2.4958 0.94463,-0.57965 2.02882,-0.86949 3.25259,-0.86951 1.85707,2e-5 3.24184,0.46698 4.1543,1.40087 0.92316,0.9232 1.38475,2.32943 1.38477,4.21871 l 0,11.93155 -2.01274,0 0,-11.77053 c -3e-5,-1.43842 -0.27913,-2.46895 -0.8373,-3.09157 -0.55823,-0.62259 -1.47604,-0.9339 -2.75344,-0.93391 -1.5136,1e-5 -2.72661,0.46697 -3.63904,1.40087 -0.91246,0.93392 -1.36868,2.15767 -1.36866,3.67124 l 0,10.7239 -1.98054,0 0,-11.5773 c -2e-5,-1.41696 -0.29522,-2.46895 -0.88561,-3.15598 -0.59042,-0.68701 -1.49749,-1.03051 -2.72123,-1.03053 -1.50286,2e-5 -2.72124,0.47771 -3.65514,1.43307 -0.92318,0.9554 -1.38477,2.20598 -1.38477,3.75176 l 0,10.57898 -1.98054,0"
           id="path5865"
           style="font-style:normal;font-variant:normal;font-weight:normal;font-stretch:normal;fill:#0066ff;font-family:Swis721 Lt BT;-inkscape-font-specification:Swis721 Lt BT" />
        <path
           d="m 276.65562,-148.05929 0,0.0966 c 0,2.09326 0.50452,3.76249 1.51358,5.00771 1.00905,1.23448 2.36162,1.85172 4.0577,1.85172 1.34181,0 2.46358,-0.35961 3.3653,-1.07883 0.9017,-0.72995 1.44916,-1.7229 1.6424,-2.97886 l 1.98054,0 c -0.21471,1.73901 -0.96613,3.13451 -2.25427,4.18651 -1.28817,1.04126 -2.9091,1.56188 -4.86279,1.56189 -2.32942,-1e-5 -4.15431,-0.789 -5.47466,-2.36699 -1.32036,-1.57799 -1.98054,-3.76785 -1.98054,-6.5696 0,-2.8554 0.66018,-5.08283 1.98054,-6.68231 1.33109,-1.59944 3.17744,-2.39917 5.53907,-2.39919 2.2972,2e-5 4.08451,0.76755 5.36195,2.30258 1.28814,1.52433 1.93221,3.66052 1.93223,6.40858 l 0,0.66018 -12.80105,0 m 0.0322,-1.59409 10.7239,0.0161 c -0.0859,-1.88929 -0.60115,-3.37066 -1.54578,-4.44414 -0.93393,-1.08418 -2.17914,-1.62628 -3.73566,-1.6263 -1.56726,2e-5 -2.84468,0.54748 -3.83226,1.6424 -0.97686,1.09495 -1.51359,2.56559 -1.6102,4.41194"
           id="path5867"
           style="font-style:normal;font-variant:normal;font-weight:normal;font-stretch:normal;fill:#0066ff;font-family:Swis721 Lt BT;-inkscape-font-specification:Swis721 Lt BT" />
        <path
           d="m 291.58725,-139.8795 0,-17.11637 1.91614,0 0,2.73733 c 0.64407,-1.05198 1.43843,-1.84097 2.38308,-2.36699 0.94464,-0.53671 2.03958,-0.80508 3.2848,-0.8051 1.1808,2e-5 2.21669,0.20935 3.10768,0.62798 0.89096,0.41867 1.57261,1.01444 2.04495,1.78732 0.24688,0.39719 0.424,0.88025 0.53136,1.44917 0.10733,0.55822 0.161,1.48139 0.16102,2.76954 l 0,0.49916 0,10.41796 -2.04495,0 0,-10.61119 c -1e-5,-2.00736 -0.31132,-3.36529 -0.93391,-4.07379 -0.61189,-0.7192 -1.69608,-1.07881 -3.2526,-1.07883 -1.59946,2e-5 -2.86615,0.50991 -3.80006,1.52969 -0.92318,1.00906 -1.38477,2.38846 -1.38476,4.1382 l 0,10.09592 -2.01275,0"
           id="path5869"
           style="font-style:normal;font-variant:normal;font-weight:normal;font-stretch:normal;fill:#0066ff;font-family:Swis721 Lt BT;-inkscape-font-specification:Swis721 Lt BT" />
        <path
           d="m 310.60873,-161.90697 0,4.9111 3.17209,0 0,1.61019 -3.17209,0 0,12.47901 c 0,0.72996 0.0912,1.21302 0.27374,1.44918 0.18248,0.23616 0.50989,0.35424 0.98222,0.35424 0.20395,0 0.43474,-0.0161 0.69238,-0.0483 0.25762,-0.0429 0.66017,-0.12344 1.20765,-0.24152 l 0.0161,1.57799 c -0.48307,0.12881 -0.92319,0.22006 -1.32036,0.27373 -0.39719,0.0644 -0.7729,0.0966 -1.12714,0.0966 -0.98759,0 -1.68534,-0.2469 -2.09325,-0.74069 -0.40792,-0.50453 -0.61188,-1.4116 -0.61188,-2.72123 l 0,-12.47901 -2.33478,0 0,-1.61019 2.33478,0 0,-4.9111 1.98054,0"
           id="path5871"
           style="font-style:normal;font-variant:normal;font-weight:normal;font-stretch:normal;fill:#0066ff;font-family:Swis721 Lt BT;-inkscape-font-specification:Swis721 Lt BT" />
        <path
           d="m 326.60312,-148.84829 c -0.52601,0.19324 -1.20229,0.34889 -2.02884,0.46696 -0.81585,0.11809 -2.1362,0.22544 -3.96108,0.32204 -1.26669,0.33278 -2.22208,0.8051 -2.86615,1.41697 -0.64408,0.61188 -0.96612,1.3472 -0.96612,2.20597 0,0.97685 0.34351,1.75511 1.03053,2.33478 0.69774,0.57967 1.64239,0.86951 2.83394,0.86951 1.81415,0 3.25795,-0.46696 4.33143,-1.40087 1.08418,-0.94465 1.62628,-2.22744 1.62629,-3.84837 l 0,-2.36699 m 0.12882,6.48909 c -0.90172,0.97685 -1.87857,1.70681 -2.93056,2.18986 -1.052,0.48306 -2.1845,0.72459 -3.39751,0.72459 -1.72828,0 -3.10768,-0.45085 -4.1382,-1.35256 -1.01979,-0.90171 -1.52968,-2.10399 -1.52968,-3.60684 0,-0.97684 0.23079,-1.83025 0.69238,-2.56021 0.47232,-0.72995 1.15397,-1.30425 2.04495,-1.72291 1.01978,-0.46158 2.72122,-0.78362 5.10432,-0.96611 0.46158,-0.0322 0.81045,-0.059 1.04662,-0.0805 0.13954,-0.0322 0.3274,-0.0698 0.56357,-0.11272 1.63165,-0.33276 2.44748,-1.03588 2.4475,-2.10935 -2e-5,-1.33108 -0.33279,-2.2811 -0.99832,-2.85005 -0.65483,-0.57965 -1.73903,-0.86949 -3.2526,-0.8695 -1.53506,1e-5 -2.7105,0.32205 -3.52632,0.96611 -0.81584,0.63336 -1.25596,1.57801 -1.32036,2.83395 l -1.94834,-0.0161 c 0.0429,-1.70679 0.67091,-3.05398 1.88393,-4.04158 1.21301,-0.99831 2.85004,-1.49747 4.91109,-1.49749 2.05031,2e-5 3.60683,0.44014 4.66957,1.32036 1.06271,0.88026 1.59408,2.16841 1.59409,3.86447 l 0,9.33913 c -1e-5,0.70849 0.0859,1.14861 0.25763,1.32036 0.17174,0.17176 0.49378,0.25763 0.96612,0.25763 0.15027,0 0.27908,0 0.38645,0 0.10732,-0.0107 0.22004,-0.0215 0.33814,-0.0322 l 0,1.48138 c -0.24692,0.0537 -0.49381,0.0912 -0.74069,0.11271 -0.24692,0.0322 -0.47234,0.0483 -0.67629,0.0483 -0.81584,0 -1.42772,-0.19859 -1.83562,-0.59577 -0.40793,-0.39718 -0.61188,-0.98759 -0.61187,-1.77122 l 0,-0.27373"
           id="path5873"
           style="font-style:normal;font-variant:normal;font-weight:normal;font-stretch:normal;fill:#0066ff;font-family:Swis721 Lt BT;-inkscape-font-specification:Swis721 Lt BT" />
        <path
           d="m 334.54648,-161.90697 0,4.9111 3.17208,0 0,1.61019 -3.17208,0 0,12.47901 c -10e-6,0.72996 0.0912,1.21302 0.27373,1.44918 0.18248,0.23616 0.50989,0.35424 0.98222,0.35424 0.20395,0 0.43475,-0.0161 0.69238,-0.0483 0.25763,-0.0429 0.66018,-0.12344 1.20765,-0.24152 l 0.0161,1.57799 c -0.48306,0.12881 -0.92318,0.22006 -1.32036,0.27373 -0.39719,0.0644 -0.7729,0.0966 -1.12713,0.0966 -0.9876,0 -1.68535,-0.2469 -2.09326,-0.74069 -0.40792,-0.50453 -0.61188,-1.4116 -0.61187,-2.72123 l 0,-12.47901 -2.33478,0 0,-1.61019 2.33478,0 0,-4.9111 1.98054,0"
           id="path5875"
           style="font-style:normal;font-variant:normal;font-weight:normal;font-stretch:normal;fill:#0066ff;font-family:Swis721 Lt BT;-inkscape-font-specification:Swis721 Lt BT" />
        <path
           d="m 339.7364,-160.61881 0,-2.97886 1.96444,0 0,2.97886 -1.96444,0 m 0,20.73931 0,-17.11637 1.96444,0 0,17.11637 -1.96444,0"
           id="path5877"
           style="font-style:normal;font-variant:normal;font-weight:normal;font-stretch:normal;fill:#0066ff;font-family:Swis721 Lt BT;-inkscape-font-specification:Swis721 Lt BT" />
        <path
           d="m 346.1823,-148.41353 c 0,2.29721 0.50453,4.07916 1.51358,5.34584 1.01979,1.26669 2.44749,1.90003 4.28312,1.90003 1.85708,0 3.29016,-0.62797 4.29922,-1.88393 1.00904,-1.25594 1.51357,-3.04326 1.51359,-5.36194 -2e-5,-2.31867 -0.50455,-4.10599 -1.51359,-5.36195 -1.00906,-1.26667 -2.44214,-1.90002 -4.29922,-1.90003 -1.83563,1e-5 -3.26333,0.63336 -4.28312,1.90003 -1.00905,1.2667 -1.51358,3.05401 -1.51358,5.36195 m -2.04495,0 c 0,-2.86614 0.68165,-5.08284 2.04495,-6.65011 1.37403,-1.57797 3.30626,-2.36697 5.7967,-2.36699 2.50116,2e-5 4.43876,0.78902 5.81281,2.36699 1.38475,1.56727 2.07713,3.78397 2.07715,6.65011 -2e-5,2.84468 -0.68704,5.05064 -2.06105,6.6179 -1.37405,1.56725 -3.31701,2.35088 -5.82891,2.35088 -2.49044,0 -4.42267,-0.77826 -5.7967,-2.33478 -1.3633,-1.56725 -2.04495,-3.77859 -2.04495,-6.634"
           id="path5879"
           style="font-style:normal;font-variant:normal;font-weight:normal;font-stretch:normal;fill:#0066ff;font-family:Swis721 Lt BT;-inkscape-font-specification:Swis721 Lt BT" />
        <path
           d="m 362.04782,-139.8795 0,-17.11637 1.91614,0 0,2.73733 c 0.64407,-1.05198 1.43843,-1.84097 2.38309,-2.36699 0.94464,-0.53671 2.03957,-0.80508 3.28479,-0.8051 1.1808,2e-5 2.21669,0.20935 3.10768,0.62798 0.89096,0.41867 1.57261,1.01444 2.04495,1.78732 0.24688,0.39719 0.424,0.88025 0.53136,1.44917 0.10733,0.55822 0.161,1.48139 0.16102,2.76954 l 0,0.49916 0,10.41796 -2.04495,0 0,-10.61119 c -10e-6,-2.00736 -0.31131,-3.36529 -0.93391,-4.07379 -0.61189,-0.7192 -1.69608,-1.07881 -3.25259,-1.07883 -1.59947,2e-5 -2.86616,0.50991 -3.80006,1.52969 -0.92319,1.00906 -1.38478,2.38846 -1.38477,4.1382 l 0,10.09592 -2.01275,0"
           id="path5881"
           style="font-style:normal;font-variant:normal;font-weight:normal;font-stretch:normal;fill:#0066ff;font-family:Swis721 Lt BT;-inkscape-font-specification:Swis721 Lt BT" />
      </g>
      <g
         transform="matrix(0.09955544,0,0,0.09955544,-188.75053,114.141)"
         id="g6331-1-5-46-4-6-4-9-6">
        <path
           d="m 299.92285,1247.8819 148.23744,-137.0691 148.23738,137.0691 0,122.3366 -148.23738,137.069 -148.23744,-137.069 0,-122.3366 z"
           id="path6210-4-0-7-1-0-9-6-7"
           style="fill:#ffffff;fill-opacity:1;fill-rule:evenodd;stroke:none" />
        <path
           d="m 299.9229,1247.8819 0,122.3366"
           id="path6218-9-9-6-4-7-5-2-1"
           style="fill:none;stroke:#6a6aff;stroke-width:8.67008018;stroke-linecap:round;stroke-linejoin:miter;stroke-miterlimit:4;stroke-opacity:1;stroke-dasharray:none" />
        <path
           d="m 596.39772,1247.8819 0,122.3366"
           id="path6220-2-6-0-5-7-0-8-4"
           style="fill:none;stroke:#6a6aff;stroke-width:8.67008018;stroke-linecap:round;stroke-linejoin:miter;stroke-miterlimit:4;stroke-opacity:1;stroke-dasharray:none" />
        <g
           transform="matrix(1.0005174,0,0,1.0017007,247.6738,72.984062)"
           id="g6222-0-3-9-8-2-4-0-1">
          <path
             d="M 200.38286,1158.1956 52.22208,1295.032 200.38286,1431.8683 348.54358,1295.032 200.38286,1158.1956 z"
             id="path6224-6-8-7-5-8-8-0-1"
             style="fill:url(#linearGradient4915-0);fill-opacity:1;fill-rule:evenodd;stroke:none" />
          <path
             d="m 52.22208,1295.032 148.16078,136.8363"
             id="path6226-89-5-5-1-67-71-3-7"
             style="fill:none;stroke:url(#linearGradient4917-9);stroke-width:8.66047764;stroke-linecap:round;stroke-linejoin:miter;stroke-miterlimit:4;stroke-opacity:1;stroke-dasharray:none" />
          <path
             d="M 348.54358,1295.032 200.38286,1431.8683"
             id="path6228-2-6-9-9-3-72-1-9"
             style="fill:none;stroke:url(#linearGradient4919-2);stroke-width:8.66047764;stroke-linecap:round;stroke-linejoin:miter;stroke-miterlimit:4;stroke-opacity:1;stroke-dasharray:none" />
          <path
             d="M 52.22208,1295.032 200.38286,1158.1956"
             id="path6230-6-1-7-9-0-72-3-4"
             style="fill:none;stroke:#6a6aff;stroke-width:8.66047764;stroke-linecap:round;stroke-linejoin:miter;stroke-miterlimit:4;stroke-opacity:1;stroke-dasharray:none" />
          <path
             d="M 348.54358,1295.032 200.38286,1158.1956"
             id="path6232-6-1-8-6-0-2-7-4"
             style="fill:none;stroke:#6a6aff;stroke-width:8.66047764;stroke-linecap:round;stroke-linejoin:miter;stroke-miterlimit:4;stroke-opacity:1;stroke-dasharray:none" />
        </g>
        <path
           d="m 448.16034,1507.2875 0,-122.3366 148.23738,-137.069 0,122.3366 -148.23738,137.069 z"
           id="path6214-49-5-53-7-8-6-3-4"
           style="fill:url(#linearGradient4921-6);fill-opacity:1;fill-rule:evenodd;stroke:none" />
        <path
           d="m 299.9229,1247.8819 0,122.3366 148.23744,137.069 0,-122.3366 -148.23744,-137.069 z"
           id="path6216-5-9-3-9-71-1-8-4"
           style="fill:url(#linearGradient4923-4);fill-opacity:1;fill-rule:evenodd;stroke:none" />
        <path
           d="m 448.16034,1384.9509 0,122.3366"
           id="path6234-0-8-8-0-7-0-4-5"
           style="fill:#a0b4d1;fill-opacity:1;fill-rule:evenodd;stroke:#d5dfe6;stroke-width:8.67008018;stroke-linecap:round;stroke-linejoin:miter;stroke-miterlimit:4;stroke-opacity:1;stroke-dasharray:none" />
        <g
           transform="matrix(1.0005174,0,0,1.0017007,247.6738,-49.352566)"
           id="g6236-48-4-3-5-4-6-5-2">
          <path
             d="M 200.38286,1158.1956 52.22208,1295.032 200.38286,1431.8683 348.54358,1295.032 200.38286,1158.1956 z"
             id="path6238-7-8-7-9-4-1-7-3"
             style="fill:url(#linearGradient4925-2);fill-opacity:1;fill-rule:evenodd;stroke:none" />
          <path
             d="m 52.22208,1295.032 148.16078,136.8363"
             id="path6240-1-1-9-7-5-5-7-7"
             style="fill:none;stroke:url(#linearGradient4927-2);stroke-width:8.66047764;stroke-linecap:round;stroke-linejoin:miter;stroke-miterlimit:4;stroke-opacity:1;stroke-dasharray:none" />
          <path
             d="M 348.54358,1295.032 200.38286,1431.8683"
             id="path6242-7-0-3-6-4-9-3-8"
             style="fill:none;stroke:url(#linearGradient4929-1);stroke-width:8.66047764;stroke-linecap:round;stroke-linejoin:miter;stroke-miterlimit:4;stroke-opacity:1;stroke-dasharray:none" />
          <path
             d="M 52.22208,1295.032 200.38286,1158.1956"
             id="path6244-2-3-7-6-2-4-8-4"
             style="fill:none;stroke:#6a6aff;stroke-width:8.66047764;stroke-linecap:round;stroke-linejoin:miter;stroke-miterlimit:4;stroke-opacity:1;stroke-dasharray:none" />
          <path
             d="M 348.54358,1295.032 200.38286,1158.1956"
             id="path6246-7-0-8-8-8-90-8-4"
             style="fill:none;stroke:#6a6aff;stroke-width:8.66047764;stroke-linecap:round;stroke-linejoin:miter;stroke-miterlimit:4;stroke-opacity:1;stroke-dasharray:none" />
        </g>
      </g>
    </g>
  </g>
</svg>
